{"asset":{"generator":"Khronos glTF Blender I/O v1.6.16","version":"2.0"},"scene":0,"scenes":[{"name":"Scene","nodes":[0]}],"nodes":[{"name":"extinguisher","children":[1,2,3,4,5,6,7,8,9,10,11]},{"name":"cylinder","mesh":0},{"name":"valve","mesh":1},{"name":"handle","mesh":2},{"name":"hose","mesh":3},{"name":"base","mesh":4},{"name":"lever","mesh":5},{"name":"gauge","mesh":6},{"name":"pin","mesh":7},{"name":"strap","mesh":8},{"name":"gauge-glass","mesh":9},{"name":"tag","mesh":10}],"materials":[{"doubleSided":true,"name":"korean_fire_extinguisher_01_body","normalTexture":{"index":0},"pbrMetallicRoughness":{"baseColorTexture":{"index":1},"metallicRoughnessTexture":{"index":2}}},{"alphaMode":"BLEND","doubleSided":true,"name":"korean_fire_extinguisher_01_glass","normalTexture":{"index":3},"pbrMetallicRoughness":{"baseColorFactor":[1,1,1,0.30000001192092896],"baseColorTexture":{"index":4},"metallicRoughnessTexture":{"index":5}}},{"alphaMode":"BLEND","name":"korean_fire_extinguisher_01_paper","normalTexture":{"index":6},"pbrMetallicRoughness":{"baseColorTexture":{"index":7},"metallicRoughnessTexture":{"index":8}}}],"meshes":[{"name":"cylinder","primitives":[{"attributes":{"POSITION":0,"NORMAL":1,"TEXCOORD_0":2},"indices":12,"material":0}]},{"name":"valve","primitives":[{"attributes":{"POSITION":0,"NORMAL":1,"TEXCOORD_0":2},"indices":13,"material":0}]},{"name":"handle","primitives":[{"attributes":{"POSITION":0,"NORMAL":1,"TEXCOORD_0":2},"indices":14,"material":0}]},{"name":"hose","primitives":[{"attributes":{"POSITION":0,"NORMAL":1,"TEXCOORD_0":2},"indices":15,"material":0}]},{"name":"base","primitives":[{"attributes":{"POSITION":0,"NORMAL":1,"TEXCOORD_0":2},"indices":16,"material":0}]},{"name":"lever","primitives":[{"attributes":{"POSITION":0,"NORMAL":1,"TEXCOORD_0":2},"indices":17,"material":0}]},{"name":"gauge","primitives":[{"attributes":{"POSITION":0,"NORMAL":1,"TEXCOORD_0":2},"indices":18,"material":0}]},{"name":"pin","primitives":[{"attributes":{"POSITION":0,"NORMAL":1,"TEXCOORD_0":2},"indices":19,"material":0}]},{"name":"strap","primitives":[{"attributes":{"POSITION":0,"NORMAL":1,"TEXCOORD_0":2},"indices":20,"material":0}]},{"name":"gauge-glass","primitives":[{"attributes":{"POSITION":4,"NORMAL":5,"TEXCOORD_0":6},"indices":7,"material":1}]},{"name":"tag","primitives":[{"attributes":{"POSITION":8,"NORMAL":9,"TEXCOORD_0":10},"indices":11,"material":2}]}],"textures":[{"sampler":0,"source":0},{"sampler":0,"source":1},{"sampler":0,"source":2},{"sampler":0,"source":3},{"sampler":0,"source":4},{"sampler":0,"source":5},{"sampler":0,"source":6},{"sampler":0,"source":7},{"sampler":0,"source":8}],"images":[{"mimeType":"image/jpeg","name":"korean_fire_extinguisher_01_body_nor_gl","uri":"body_nor_gl.jpg"},{"mimeType":"image/jpeg","name":"korean_fire_extinguisher_01_body_diff.png","uri":"body_diff.jpg"},{"mimeType":"image/jpeg","name":"korean_fire_extinguisher_01_body_metal.png-korean_fire_extinguisher_01_body_rough.png","uri":"body_arm.jpg"},{"mimeType":"image/jpeg","name":"korean_fire_extinguisher_01_glass_nor_gl","uri":"glass_nor_gl.jpg"},{"mimeType":"image/jpeg","name":"korean_fire_extinguisher_01_glass_diff","uri":"glass_diff.jpg"},{"mimeType":"image/jpeg","name":"korean_fire_extinguisher_01_glass_metal-korean_fire_extinguisher_01_glass_rough","uri":"glass_arm.jpg"},{"mimeType":"image/jpeg","name":"korean_fire_extinguisher_01_paper_nor_gl","uri":"paper_nor_gl.jpg"},{"mimeType":"image/jpeg","name":"korean_fire_extinguisher_01_paper_diff-korean_fire_extinguisher_01_paper_opacity","uri":"paper_diff.jpg"},{"mimeType":"image/jpeg","name":"korean_fire_extinguisher_01_paper_metal-korean_fire_extinguisher_01_paper_rough","uri":"paper_arm.jpg"}],"accessors":[{"bufferView":0,"componentType":5126,"count":6575,"max":[0.1399787962436676,0.6592506766319275,0.24420279264450073],"min":[-0.1399787813425064,-3.978568940965488e-8,-0.12324045598506927],"type":"VEC3"},{"bufferView":1,"componentType":5126,"count":6575,"type":"VEC3"},{"bufferView":2,"componentType":5126,"count":6575,"type":"VEC2"},{"bufferView":3,"componentType":5123,"count":28683,"type":"SCALAR"},{"bufferView":4,"componentType":5126,"count":270,"max":[0.021115895360708237,0.5971118211746216,0.07201548665761948],"min":[-0.02108774706721306,0.5549080967903137,0.06598098576068878],"type":"VEC3"},{"bufferView":5,"componentType":5126,"count":270,"type":"VEC3"},{"bufferView":6,"componentType":5126,"count":270,"type":"VEC2"},{"bufferView":7,"componentType":5123,"count":960,"type":"SCALAR"},{"bufferView":8,"componentType":5126,"count":30,"max":[-0.0016376094426959753,0.5324327349662781,0.007371075451374054],"min":[-0.08279979974031448,0.47684013843536377,-0.07724466919898987],"type":"VEC3"},{"bufferView":9,"componentType":5126,"count":30,"type":"VEC3"},{"bufferView":10,"componentType":5126,"count":30,"type":"VEC2"},{"bufferView":11,"componentType":5123,"count":96,"type":"SCALAR"},{"bufferView":12,"componentType":5125,"count":5043,"type":"SCALAR"},{"bufferView":13,"componentType":5125,"count":7293,"type":"SCALAR"},{"bufferView":14,"componentType":5125,"count":3408,"type":"SCALAR"},{"bufferView":15,"componentType":5125,"count":5160,"type":"SCALAR"},{"bufferView":16,"componentType":5125,"count":1944,"type":"SCALAR"},{"bufferView":17,"componentType":5125,"count":1404,"type":"SCALAR"},{"bufferView":18,"componentType":5125,"count":2277,"type":"SCALAR"},{"bufferView":19,"componentType":5125,"count":1344,"type":"SCALAR"},{"bufferView":20,"componentType":5125,"count":810,"type":"SCALAR"}],"bufferViews":[{"buffer":0,"byteLength":78900,"byteOffset":0},{"buffer":0,"byteLength":78900,"byteOffset":78900},{"buffer":0,"byteLength":52600,"byteOffset":157800},{"buffer":0,"byteLength":57366,"byteOffset":210400},{"buffer":0,"byteLength":3240,"byteOffset":267768},{"buffer":0,"byteLength":3240,"byteOffset":271008},{"buffer":0,"byteLength":2160,"byteOffset":274248},{"buffer":0,"byteLength":1920,"byteOffset":276408},{"buffer":0,"byteLength":360,"byteOffset":278328},{"buffer":0,"byteLength":360,"byteOffset":278688},{"buffer":0,"byteLength":240,"byteOffset":279048},{"buffer":0,"byteLength":192,"byteOffset":279288},{"buffer":0,"byteOffset":279480,"byteLength":20172,"target":34963},{"buffer":0,"byteOffset":299652,"byteLength":29172,"target":34963},{"buffer":0,"byteOffset":328824,"byteLength":13632,"target":34963},{"buffer":0,"byteOffset":342456,"byteLength":20640,"target":34963},{"buffer":0,"byteOffset":363096,"byteLength":7776,"target":34963},{"buffer":0,"byteOffset":370872,"byteLength":5616,"target":34963},{"buffer":0,"byteOffset":376488,"byteLength":9108,"target":34963},{"buffer":0,"byteOffset":385596,"byteLength":5376,"target":34963},{"buffer":0,"byteOffset":390972,"byteLength":3240,"target":34963}],"samplers":[{"magFilter":9729,"minFilter":9987}],"buffers":[{"uri":"extinguisher.bin","byteLength":394212}]}